<svg width="90" height="75" viewBox="0 0 90 75" fill="none" xmlns="http://www.w3.org/2000/svg">
<path opacity="0.34" d="M3.97969 70.1719H10.3082C10.2728 70.0107 10.253 69.8438 10.253 69.6725C10.253 69.2665 10.3581 68.8838 10.5425 68.5487H6.95788C5.63361 68.5487 4.55 67.4811 4.55 66.1764C4.55 64.8717 5.63361 63.8041 6.95788 63.8041H79.5756C80.8999 63.8041 81.9835 64.8717 81.9835 66.1764C81.9835 66.5824 81.8784 66.9651 81.6941 67.3001H85.2786C86.6029 67.3001 87.6865 68.3678 87.6865 69.6725C87.6865 70.9772 86.6029 72.0448 85.2786 72.0448H76.0987C76.1341 72.206 76.1538 72.3729 76.1538 72.5442C76.1538 73.8489 75.0702 74.9165 73.7459 74.9165H3.97969C2.65542 74.9165 1.57181 73.8489 1.57181 72.5442C1.57181 71.2395 2.65542 70.1719 3.97969 70.1719Z" fill="#A8D5F6"/>
<path opacity="0.34" d="M33.9762 72.4096C33.0413 71.8953 32.2753 72.0427 31.3086 72.3698C29.7396 72.9003 27.9826 72.9298 26.3375 73.0415C24.2661 73.1819 22.1765 73.2613 20.103 73.115C18.7751 73.0216 16.4962 72.9381 15.6646 71.7012C14.3203 69.7018 18.1099 69.2752 19.3304 69.0913C19.7602 69.0265 19.74 68.3369 19.3304 68.2557C18.8575 68.2597 18.6689 67.96 18.764 67.3567C19.0421 67.0693 18.8253 66.6508 18.453 66.6171C14.8005 66.2858 11.2963 64.6668 7.61976 64.6534C6.52297 64.6494 5.58011 64.8751 4.72942 65.281C5.08995 64.417 5.9538 63.8041 6.95705 63.8041H79.5748C80.1955 63.8041 80.7613 64.0405 81.1895 64.4239C79.613 65.332 78.0219 66.4012 76.2692 66.8544C74.9398 67.1982 73.2507 67.2337 72.1196 68.0819C71.2342 68.7458 70.9166 70.4808 69.7685 70.7231C68.1886 71.0566 67.6482 68.7037 67.1181 67.7057C66.9742 67.4346 66.6361 67.4549 66.4275 67.618C64.2119 69.3481 61.6637 70.5936 58.9339 71.3154C56.2994 72.0121 53.6563 72.0184 50.9547 72.1441C48.5034 72.2579 46.0914 72.6013 43.8572 73.6541C43.0901 74.0156 42.3761 74.4481 41.6882 74.9165H36.9619C35.8778 74.2102 35.1313 73.045 33.9762 72.4096Z" fill="#A8D5F6"/>
<path d="M76.215 24.2557C76.1708 23.6355 76.2809 22.996 76.5674 22.3929C77.0759 21.3233 78.0286 20.5988 79.1072 20.3322C78.9771 19.7308 79.0343 19.0848 79.3195 18.4849C80.0146 17.0223 81.7818 16.3919 83.2662 17.0771C84.7507 17.762 85.3905 19.503 84.6951 20.9654C84.4202 21.5441 83.9759 21.9896 83.4494 22.278C83.9677 23.2798 84.029 24.4982 83.5075 25.5953C83.2223 26.1954 82.7969 26.6864 82.2883 27.0494C82.7022 28.1734 82.6806 29.4528 82.1253 30.6211C81.0156 32.9556 78.1952 33.9616 75.8257 32.8683C73.4562 31.775 72.435 28.9963 73.5447 26.6618C74.0987 25.4971 75.0783 24.6632 76.215 24.2557Z" fill="#25A1A4"/>
<path opacity="0.28" d="M75.5639 32.7367C76.2178 31.1795 76.9161 29.6395 77.636 28.1102C78.556 26.1559 79.5075 24.2162 80.4385 22.2673C81.2899 20.4851 82.4595 18.8778 83.3531 17.1226C84.7741 17.835 85.3769 19.5327 84.6956 20.9658C84.4206 21.5444 83.9763 21.99 83.4498 22.2783C83.9682 23.2801 84.0294 24.4985 83.508 25.5956C83.2228 26.1958 82.7974 26.6867 82.2888 27.0498C82.7027 28.1737 82.6811 29.4531 82.1258 30.6214C81.0161 32.9559 78.1957 33.962 75.8262 32.8687C75.7365 32.8271 75.6495 32.7828 75.5639 32.7367Z" fill="#25A1A4"/>
<path opacity="0.44" d="M72.3751 39.1636C73.8324 35.5722 76.0496 30.9569 78.0992 26.8711C78.0956 26.8657 78.0912 26.8605 78.0892 26.8541L77.2156 24.2599C77.2024 24.2212 77.2238 24.1791 77.2633 24.1664C77.3028 24.1536 77.3452 24.1744 77.3582 24.2133L78.1916 26.6876C78.6189 25.837 79.0384 25.0103 79.4414 24.2221C79.4428 24.2026 79.4518 24.1847 79.4673 24.1717C80.1189 22.8977 80.7271 21.7247 81.2554 20.7142C81.2529 20.7095 81.2492 20.7052 81.2476 20.6998L80.7761 18.9831C80.7652 18.9438 80.789 18.9031 80.829 18.8923C80.869 18.8818 80.9103 18.9051 80.9212 18.9444L81.355 20.5238C82.4443 18.443 83.1715 17.0938 83.1992 17.0425C83.219 17.0063 83.2669 16.9927 83.3009 17.0119C83.3375 17.0311 83.3515 17.0761 83.332 17.1121C83.2909 17.1879 81.7078 20.1246 79.6848 24.0756L81.9726 23.1149C82.0107 23.0988 82.055 23.1162 82.0711 23.154C82.0874 23.1916 82.0695 23.235 82.0314 23.2511L79.5797 24.2804C78.6606 26.0777 77.656 28.0747 76.6664 30.1029L78.9987 29.1235C79.0368 29.1074 79.0811 29.125 79.0972 29.1626C79.1136 29.2002 79.0956 29.2436 79.0575 29.2597L76.5713 30.3038C76.5701 30.3042 76.5692 30.304 76.5681 30.3045C75.0617 33.3983 73.5994 36.5502 72.5365 39.1636H72.3751Z" fill="#152232"/>
<path d="M68.3259 27.4928C68.1302 27.0962 68.0308 26.6468 68.0573 26.1753C68.1046 25.339 68.5366 24.6141 69.1746 24.1571C68.9273 23.7954 68.7913 23.3554 68.8179 22.8864C68.8824 21.7427 69.8754 20.8673 71.0362 20.9308C72.197 20.9943 73.0856 21.9727 73.0211 23.1163C72.9957 23.5686 72.8232 23.9777 72.5541 24.3047C73.1644 24.8288 73.5322 25.6141 73.4838 26.4721C73.4575 26.9414 73.3095 27.3753 73.0725 27.7469C73.6466 28.3783 73.9763 29.2258 73.925 30.1391C73.8221 31.9643 72.237 33.3618 70.3842 33.2605C68.5316 33.1591 67.1131 31.5974 67.216 29.772C67.2671 28.8617 67.6875 28.0575 68.3259 27.4928Z" fill="#25A1A4"/>
<path opacity="0.28" d="M70.1762 33.2412C70.188 32.0463 70.2337 30.851 70.2963 29.657C70.3765 28.1313 70.4811 26.6072 70.5701 25.082C70.6514 23.6874 70.989 22.3247 71.1052 20.937C72.2315 21.035 73.0843 21.9948 73.0211 23.1154C72.9957 23.5677 72.8232 23.9768 72.5541 24.3038C73.1644 24.8279 73.5322 25.6132 73.4838 26.4712C73.4575 26.9405 73.3095 27.3744 73.0725 27.7459C73.6466 28.3774 73.9763 29.2249 73.925 30.1381C73.8221 31.9633 72.237 33.3609 70.3842 33.2595C70.3138 33.2557 70.2448 33.2493 70.1762 33.2412Z" fill="#25A1A4"/>
<path opacity="0.44" d="M70.548 26.6312C70.4263 28.0533 70.3019 29.6291 70.1958 31.2217L71.4672 29.9691C71.4881 29.9485 71.5217 29.9485 71.5426 29.9691C71.5635 29.9897 71.5635 30.0228 71.5426 30.0434L70.1874 31.3787C70.1868 31.3794 70.1861 31.3794 70.1856 31.3798C70.0008 34.1903 69.876 37.0346 69.9248 39.1642H69.8178C69.754 36.3501 69.9924 32.2949 70.2703 28.7217C70.2665 28.719 70.2624 28.7167 70.2592 28.7132L68.9874 27.2342C68.9683 27.2121 68.971 27.179 68.9935 27.1602C69.016 27.1414 69.0496 27.1441 69.0686 27.1662L70.2819 28.5767C70.3346 27.9055 70.3884 27.2523 70.4415 26.6287C70.4372 26.6155 70.4383 26.6014 70.4449 26.5889C70.5312 25.5808 70.6163 24.6503 70.6924 23.8478C70.6894 23.8453 70.686 23.8435 70.6835 23.8404L69.9121 22.8339C69.8943 22.8108 69.8991 22.7777 69.9225 22.7603C69.9461 22.7428 69.9795 22.7475 69.9972 22.7706L70.7069 23.6963C70.8644 22.0432 70.9802 20.9659 70.9848 20.925C70.988 20.8962 71.0159 20.8747 71.0433 20.8783C71.0726 20.8814 71.0937 20.9073 71.0908 20.936C71.0842 20.9966 70.8318 23.3414 70.5623 26.4686L71.8094 25.2399C71.8302 25.2194 71.8638 25.2194 71.8847 25.2399C71.9056 25.2605 71.9056 25.2936 71.8847 25.3142L70.548 26.6312Z" fill="#152232"/>
<path opacity="0.51" d="M63.4008 39.1685H77.4767C78.101 39.1685 78.6118 39.6718 78.6118 40.2869C78.6118 40.902 78.101 41.4053 77.4767 41.4053H77.2496V47.5145C77.2496 48.9908 76.0237 50.1987 74.5253 50.1987H66.3522C64.8538 50.1987 63.6278 48.9908 63.6278 47.5145V41.4053H63.4008C62.7764 41.4053 62.2656 40.902 62.2656 40.2869C62.2656 39.6718 62.7764 39.1685 63.4008 39.1685Z" fill="#152232"/>
<path d="M65.1859 24.7164C65.2585 24.142 65.1886 23.5419 64.9527 22.9673C64.5343 21.9477 63.6852 21.2273 62.6958 20.9262C62.8475 20.3735 62.8268 19.77 62.5923 19.1983C62.0202 17.8042 60.4092 17.1311 58.9941 17.6948C57.579 18.2584 56.8959 19.8456 57.468 21.2398C57.6943 21.7912 58.0846 22.2276 58.5595 22.5215C58.0267 23.4276 57.908 24.5571 58.3371 25.603C58.5718 26.175 58.9423 26.6525 59.3968 27.0151C58.955 28.0398 58.9101 29.2304 59.3671 30.3438C60.2804 32.569 62.8516 33.6435 65.1101 32.7437C67.3686 31.8438 68.459 29.3107 67.5459 27.0856C67.0904 25.975 66.2221 25.1514 65.1859 24.7164Z" fill="#25A1A4"/>
<path opacity="0.28" d="M65.3604 32.6335C64.8316 31.1535 64.2604 29.6873 63.6687 28.23C62.9127 26.3677 62.1265 24.5175 61.3598 22.6594C60.6588 20.9604 59.653 19.4083 58.9111 17.7323C57.5537 18.3246 56.9071 19.8733 57.4679 21.2395C57.6942 21.7909 58.0845 22.2273 58.5594 22.5212C58.0266 23.4273 57.9079 24.5568 58.3369 25.6027C58.5717 26.1747 58.9422 26.6522 59.3967 27.0148C58.9549 28.0395 58.91 29.2301 59.367 30.3435C60.2803 32.5687 62.8514 33.6432 65.1099 32.7434C65.1953 32.7091 65.2784 32.6722 65.3604 32.6335Z" fill="#25A1A4"/>
<path opacity="0.44" d="M58.9637 17.632C58.9964 17.6159 59.0402 17.6309 59.0568 17.6655C59.0799 17.7145 59.6875 19.0047 60.5947 20.9932L61.0783 19.5462C61.0903 19.51 61.1298 19.4905 61.1666 19.5021C61.2034 19.514 61.2233 19.5529 61.2113 19.5891L60.6857 21.162C60.6841 21.167 60.6805 21.1705 60.6778 21.175C61.1175 22.1404 61.6236 23.2612 62.1648 24.4778C62.1782 24.4905 62.1859 24.5078 62.1862 24.5259C62.5208 25.2786 62.8689 26.0679 63.223 26.8798L64.1234 24.6203C64.1375 24.5847 64.1781 24.5675 64.214 24.5814C64.2501 24.5952 64.2676 24.6353 64.2535 24.6706L63.3095 27.0395C63.3072 27.0456 63.3029 27.0501 63.2993 27.055C65.0642 31.1082 66.9683 35.7016 68.1323 39.1634H67.9854C67.1239 36.6066 65.8604 33.4358 64.5484 30.3224C64.5475 30.322 64.5466 30.3222 64.5455 30.3218L62.287 29.2287C62.2522 29.2119 62.2379 29.1705 62.255 29.1365C62.272 29.1023 62.314 29.0882 62.3485 29.105L64.4674 30.1305C63.6503 28.196 62.8175 26.2898 62.0545 24.5735L59.8273 23.4956C59.7926 23.4789 59.7783 23.4375 59.7953 23.4035C59.8123 23.3693 59.8543 23.3552 59.8888 23.3719L61.9671 24.3778C60.2866 20.6046 58.9637 17.7964 58.9294 17.7237C58.9135 17.6892 58.9287 17.6481 58.9637 17.632Z" fill="#152232"/>
<path d="M65.9294 47.7428C65.9294 47.7428 68.1005 44.8397 78.1811 42.5479C78.1811 42.5479 78.8014 40.1032 79.732 40.2562C80.6626 40.4089 79.4218 43.1592 79.4218 43.1592C79.4218 43.1592 86.7107 53.0907 87.021 59.3551C87.021 59.3551 89.9676 60.4247 89.037 61.0358C88.1064 61.6469 85.6252 61.1886 85.6252 61.1886C85.6252 61.1886 76.4752 66.5362 71.2024 66.3835C71.2024 66.3835 70.4271 69.5921 69.6516 68.981C68.876 68.3699 69.8066 66.0779 69.8066 66.0779C69.8066 66.0779 64.2237 54.16 63.7583 50.0348C63.7583 50.0348 61.5872 49.7293 61.8974 48.5069C62.2075 47.2845 64.844 48.6596 64.844 48.6596L65.9294 47.7428Z" fill="#CD4170"/>
<path opacity="0.21" d="M86.8223 57.7987C84.0516 58.9752 81.3645 60.3454 78.5136 61.3325C76.3237 62.0905 73.4102 63.1832 71.3406 61.668C69.4551 60.2879 68.1631 58.0563 67.146 56.018C66.2522 54.2263 65.0625 51.8337 65.4934 49.7777C65.7205 48.6944 66.2649 47.7284 66.956 46.8392C68.3915 45.7998 71.6001 44.0435 78.1817 42.5471C78.1817 42.5471 78.802 40.1024 79.7326 40.2551C80.6632 40.4079 79.4224 43.1582 79.4224 43.1582C79.4224 43.1582 85.599 51.5747 86.8223 57.7987Z" fill="white"/>
<path d="M82.8358 56.6043C82.4933 56.6043 82.2156 56.3307 82.2156 55.9933C82.2156 55.6558 82.4933 55.3822 82.8358 55.3822C83.1784 55.3822 83.4561 55.6558 83.4561 55.9933C83.4561 56.3307 83.1784 56.6043 82.8358 56.6043Z" fill="#CD4170"/>
<path d="M78.3363 47.5899C77.9937 47.5899 77.716 47.3163 77.716 46.9788C77.716 46.6414 77.9937 46.3678 78.3363 46.3678C78.6788 46.3678 78.9565 46.6414 78.9565 46.9788C78.9565 47.3163 78.6788 47.5899 78.3363 47.5899Z" fill="#CD4170"/>
<path d="M69.6537 50.9509C69.3111 50.9509 69.0334 50.6773 69.0334 50.3398C69.0334 50.0023 69.3111 49.7288 69.6537 49.7288C69.9962 49.7288 70.2739 50.0023 70.2739 50.3398C70.2739 50.6773 69.9962 50.9509 69.6537 50.9509Z" fill="#CD4170"/>
<path d="M73.6848 59.3553C73.6848 59.6928 73.9625 59.9664 74.305 59.9664C74.6476 59.9664 74.9253 59.6928 74.9253 59.3553C74.9253 59.0178 74.6476 58.7442 74.305 58.7442C73.9627 58.7442 73.6848 59.0178 73.6848 59.3553Z" fill="#CD4170"/>
<path d="M5.15628 60.8167C5.15628 60.8167 3.85086 57.448 7.34214 47.8534C7.34214 47.8534 5.58969 46.0179 6.22333 45.3292C6.85674 44.6405 8.53473 47.1555 8.53473 47.1555C8.53473 47.1555 20.9556 46.4818 26.4729 49.6108C26.4729 49.6108 28.9788 47.7465 28.9979 48.8481C29.0167 49.9497 27.2843 51.7588 27.2843 51.7588C27.2843 51.7588 26.9054 62.2337 23.9249 66.5218C23.9249 66.5218 26.2458 68.8988 25.3048 69.2113C24.3637 69.5237 22.9096 67.5136 22.9096 67.5136C22.9096 67.5136 9.7146 65.6998 5.94022 63.8556C5.94022 63.8556 4.50584 65.4902 3.6295 64.5722C2.75339 63.6545 5.35267 62.2125 5.35267 62.2125L5.15628 60.8167Z" fill="#196EBA"/>
<path opacity="0.21" d="M25.0376 48.9349C24.5449 51.8675 24.2625 54.8354 23.5644 57.732C23.0281 59.9571 22.3863 62.9625 19.9739 63.8592C17.7763 64.676 15.1722 64.5409 12.8819 64.2821C10.8688 64.0547 8.18263 63.7476 6.65993 62.2789C5.85761 61.505 5.32703 60.5318 4.94108 59.4785C4.82938 57.7269 5.06391 54.1177 7.34352 47.8534C7.34352 47.8534 5.59107 46.0179 6.22449 45.3292C6.8579 44.6405 8.53589 47.1555 8.53589 47.1555C8.53589 47.1555 19.0612 46.5847 25.0376 48.9349Z" fill="white"/>
<path d="M21.0051 51.7784C21.2934 51.961 21.6771 51.8787 21.8624 51.5946C22.0476 51.3105 21.9641 50.9325 21.6758 50.75C21.3874 50.5675 21.0038 50.6498 20.8185 50.9338C20.6335 51.2179 20.717 51.5959 21.0051 51.7784Z" fill="#196EBA"/>
<path d="M10.8757 50.6338C11.1641 50.8163 11.5477 50.734 11.733 50.45C11.9182 50.1659 11.8347 49.7879 11.5464 49.6054C11.258 49.4228 10.8744 49.5052 10.6891 49.7892C10.5038 50.0733 10.5874 50.4515 10.8757 50.6338Z" fill="#196EBA"/>
<path d="M9.05199 59.6493C9.34032 59.8318 9.724 59.7495 9.90926 59.4654C10.0945 59.1813 10.011 58.8033 9.72264 58.6208C9.43431 58.4383 9.05063 58.5206 8.86537 58.8047C8.68012 59.0887 8.76366 59.467 9.05199 59.6493Z" fill="#196EBA"/>
<path d="M19.2649 60.666C19.5532 60.8485 19.9369 60.7662 20.1222 60.4822C20.3074 60.1981 20.2239 59.8201 19.9355 59.6376C19.6472 59.455 19.2635 59.5374 19.0783 59.8214C18.893 60.1055 18.9766 60.4835 19.2649 60.666Z" fill="#196EBA"/>
<path d="M35.361 29.1407C35.361 29.1407 27.1128 44.6804 29.5729 56.9411C29.5729 56.9411 32.9011 58.7945 33.6247 59.6498L35.5059 29.9961" fill="#D8A31E"/>
<path d="M44.3332 27.2878C44.3332 27.2878 54.6072 30.2817 57.3565 45.6789L58.5142 56.7991C58.5142 56.7991 47.2271 65.0679 44.0437 64.9255C40.8603 64.783 33.4802 58.7952 33.4802 58.7952C33.4802 58.7952 33.0461 33.7035 32.0331 32.2778C32.0331 32.2778 32.4674 26.1473 44.3332 27.2878Z" fill="#196EBA"/>
<path opacity="0.36" d="M39.8768 56.1774C43.9506 55.9144 46.9095 52.3199 48.0814 48.7474C49.3274 44.9494 49.1037 40.7371 48.2188 36.889C47.4317 33.465 46.0565 30.0132 43.8194 27.2426C43.9883 27.2562 44.1592 27.271 44.3332 27.2877C44.3332 27.2877 54.6072 30.2816 57.3565 45.6788L58.5142 56.799C58.5142 56.799 47.2271 65.0678 44.0437 64.9254C40.8603 64.7829 33.0461 58.7951 33.0461 58.7951C33.0461 58.7951 33.4532 54.96 33.3969 52.8194C34.9738 54.862 37.1862 56.3512 39.8768 56.1774Z" fill="#196EBA"/>
<path d="M44.214 22.0089L44.333 30.1391C44.333 30.1391 41.2942 34.5587 35.6507 32.8478L35.072 25.2918C35.072 25.2918 42.9377 19.7239 44.214 22.0089Z" fill="#E19194"/>
<path opacity="0.5" d="M39.1467 29.2722C38.6869 30.6333 38.1178 31.9409 37.4614 33.2051C36.8909 33.1532 36.2884 33.0416 35.6506 32.8481L35.0719 25.2921C35.0719 25.2921 38.3139 22.9988 40.9731 21.9605C40.4723 24.4225 39.952 26.888 39.1467 29.2722Z" fill="#E19194"/>
<path d="M41.2757 37.3809C41.1599 36.9971 40.0088 37.8041 39.0907 38.5248C39.063 38.4575 39.0294 38.387 38.9904 38.3139C39.8386 37.4921 41.0246 36.2429 40.8475 35.8389C40.662 35.4162 39.3064 36.7184 38.4632 37.5894C38.3917 37.5109 38.3136 37.4304 38.2292 37.3478C39.0474 36.5793 40.6307 35.0095 40.4277 34.5472C40.2014 34.0312 38.2341 36.0827 37.5801 36.7857C37.494 36.7184 37.4039 36.6504 37.309 36.5809C38.0062 35.813 38.9214 34.7082 38.7488 34.3718C38.5472 33.9788 37.2472 35.4381 36.5795 36.2299C36.338 36.435 35.686 37.0063 35.0791 37.6892C35.0839 37.2371 35.1495 36.7466 35.3708 36.4455C35.3708 36.4455 34.9937 35.5613 34.2947 36.8681C33.7328 37.9182 33.3907 39.2012 33.8711 40.1089C33.8904 40.2091 33.9249 40.3044 33.9787 40.3932C34.8039 41.7527 36.1184 42.555 39.0315 39.6973C39.9757 38.9854 41.4076 37.8182 41.2757 37.3809Z" fill="#E19194"/>
<path d="M36.3961 40.8275L23.6476 52.617C23.6476 52.617 19.5958 51.5375 22.297 47.8404L33.9725 39.4635C33.9725 39.4635 36.901 39.4554 36.3961 40.8275Z" fill="#E19194"/>
<path d="M35.5059 29.9959C35.5059 29.9959 28.9942 38.9776 29.7177 56.3706C29.7177 56.3706 22.6271 52.5214 22.3379 58.224C22.3379 58.224 19.8778 61.3604 32.033 69.9144C32.033 69.9144 32.6117 71.7677 28.2706 71.6253C23.9296 71.4828 16.26 72.1954 16.4049 70.9124C16.5495 69.6294 21.3248 69.6294 21.3248 69.6294C21.3248 69.6294 20.1672 68.6314 22.193 67.9187C24.2188 67.2059 18.4307 59.6499 19.8778 54.0898C21.3249 48.5297 23.206 30.1386 35.2164 26.4319L35.5059 29.9959Z" fill="#EBB621"/>
<path opacity="0.37" d="M21.3239 69.6298C21.3239 69.6298 20.1662 68.6318 22.192 67.9189C24.2178 67.2061 18.4297 59.6501 19.8768 54.09C20.4702 51.81 21.1372 47.3721 22.5451 42.6745C22.5793 43.1708 22.6354 43.6685 22.7174 44.1677C23.4144 48.4108 26.2454 53.0736 29.7167 55.5157C28.0751 55.1875 22.5798 53.4357 22.3369 58.2244C22.3369 58.2244 19.8768 61.3608 32.032 69.9148C32.032 69.9148 32.6107 71.7681 28.2696 71.6257C23.9286 71.4832 16.259 72.196 16.4039 70.9128C16.5487 69.6298 21.3239 69.6298 21.3239 69.6298Z" fill="#EBB621"/>
<mask id="mask0_36_6585" style="mask-type:luminance" maskUnits="userSpaceOnUse" x="16" y="26" width="20" height="46">
<path d="M35.5059 29.997C35.5059 29.997 29.1388 37.1254 29.8623 54.5186C29.8623 54.5186 22.6271 52.5227 22.3376 58.2253C22.3376 58.2253 19.8775 61.3617 32.0327 69.9157C32.0327 69.9157 32.6114 71.7691 28.2704 71.6266C23.9293 71.4841 16.2598 72.1968 16.4046 70.9138C16.5493 69.6308 21.3246 69.6308 21.3246 69.6308C21.3246 69.6308 20.167 68.6327 22.1928 67.9201C24.2186 67.2072 18.4304 59.6513 19.8775 54.0911C21.3246 48.531 23.2058 30.14 35.2162 26.4332L35.5059 29.997Z" fill="white"/>
</mask>
<g mask="url(#mask0_36_6585)">
<g opacity="0.36">
<path d="M25.1324 28.9337C25.8165 29.5468 27.2826 29.0442 28.7011 28.5577C29.9757 28.1204 31.1794 27.7073 32.0534 27.9885C33.0042 28.294 33.7337 29.4101 34.5061 30.5918C35.1735 31.6131 35.863 32.6653 36.5757 32.9136C36.5936 33.1404 36.6086 33.3674 36.624 33.5944C35.5674 33.413 34.7465 32.1605 33.9514 30.9437C33.2755 29.9096 32.5768 28.8402 31.8489 28.6063C31.1864 28.3938 30.0333 28.7888 28.9179 29.1715C27.3174 29.7204 25.6621 30.2881 24.6883 29.4144L25.1324 28.9337Z" fill="white"/>
<path d="M22.5047 37.26C23.6165 37.9443 25.3914 37.3763 27.1085 36.827C28.6125 36.3456 30.1679 35.8482 31.4427 36.1144C32.7313 36.3837 33.916 37.534 35.0618 38.6466C35.6468 39.2147 36.2414 39.7902 36.8422 40.2414C36.8458 40.5103 36.8497 40.7791 36.8535 41.048C36.0732 40.5393 35.3292 39.8187 34.5989 39.1094C33.5207 38.0626 32.4058 36.9798 31.306 36.7503C30.2036 36.5188 28.7338 36.9903 27.3121 37.445C25.4514 38.0402 23.5273 38.6562 22.1551 37.8107L22.5047 37.26Z" fill="white"/>
<path d="M19.3335 46.595C20.7434 47.2636 22.6443 46.6433 24.6569 45.9857C26.3515 45.4323 28.1039 44.8611 29.648 45.0767C31.1682 45.2901 32.6475 46.3901 34.0785 47.4537C35.1071 48.2184 36.1565 48.9973 37.2063 49.4341C37.2204 49.6723 37.234 49.9108 37.248 50.1492C36.0216 49.7099 34.8377 48.8324 33.6812 47.9726C32.3172 46.9587 30.9069 45.9103 29.5551 45.7204C28.1655 45.5245 26.487 46.0729 24.8647 46.6026C22.8159 47.2721 20.6973 47.9637 19.0472 47.1806L19.3335 46.595Z" fill="white"/>
<path d="M18.1881 54.6364C19.6536 55.3074 21.6013 54.682 23.6632 54.0195C25.4004 53.4612 27.1976 52.8846 28.7934 53.0989C30.359 53.3093 31.8901 54.4063 33.371 55.4671C34.7727 56.4712 36.2125 57.5046 37.6392 57.7453C37.649 57.9658 37.6592 58.1864 37.6689 58.4069C36.0455 58.1839 34.4917 57.0738 32.983 55.993C31.5684 54.9793 30.1054 53.9314 28.7044 53.7431C27.2571 53.5487 25.5342 54.1023 23.8678 54.6378C21.775 55.3097 19.6109 56.0053 17.91 55.226L18.1881 54.6364Z" fill="white"/>
</g>
</g>
<path opacity="0.44" d="M24.0742 43.6828C24.0742 43.6828 24.879 48.4661 28.5024 52.1017C28.5024 52.1017 24.0565 45.0277 24.0742 43.6828Z" fill="#EBB621"/>
<path d="M34.1237 45.8045C34.291 44.8233 35.6582 44.3321 36.2346 44.1668V42.7154H36.2546C36.4432 42.3769 37.9696 42.1132 39.8253 42.1132C41.6811 42.1132 43.2074 42.3769 43.3961 42.7154H43.4194V47.8261C43.4194 49.7542 41.8184 51.3315 39.8614 51.3315H39.7926C38.0894 51.3315 36.6571 50.1365 36.3138 48.5555C34.7219 47.5463 33.9843 46.6212 34.1237 45.8045ZM36.2509 48.1422C36.2414 48.0379 36.2346 47.933 36.2346 47.8263V44.4927C35.6741 44.6642 34.5648 45.0964 34.4352 45.8558C34.3264 46.4932 34.9535 47.2786 36.2509 48.1422Z" fill="white"/>
<path d="M39.8705 43.5459C38.1392 43.5459 36.7357 43.2829 36.7357 42.9585C36.7357 42.6341 38.1392 42.3711 39.8705 42.3711C41.6019 42.3711 43.0054 42.6341 43.0054 42.9585C43.0054 43.2829 41.6019 43.5459 39.8705 43.5459Z" fill="#25A1A4"/>
<g opacity="0.47">
<path d="M40.1291 40.594C41.7753 39.5897 40.499 38.2843 40.0188 37.0347C39.7496 36.3341 39.7191 35.6626 40.1026 35.0032C40.3662 34.5496 41.079 34.9583 40.8146 35.4132C40.1055 36.6332 41.6825 37.8824 41.8298 39.084C41.9529 40.0874 41.3678 40.7935 40.5455 41.2952C40.0931 41.5715 39.6785 40.8689 40.1291 40.594Z" fill="white"/>
</g>
<g opacity="0.47">
<path d="M38.3595 40.9169C38.9218 40.5357 38.4128 39.7207 38.1506 39.3355C37.8323 38.8678 37.524 38.4462 37.3987 37.8877C37.2845 37.3781 38.0791 37.1605 38.1938 37.6716C38.3922 38.5567 39.2106 39.1342 39.38 40.0363C39.4996 40.6731 39.3219 41.2477 38.7756 41.6181C38.3375 41.9156 37.9247 41.2117 38.3595 40.9169Z" fill="white"/>
</g>
<path d="M37.8904 48.3746C37.8581 47.9756 39.2269 48.3203 40.3469 48.667C40.348 48.5943 40.3537 48.5167 40.3634 48.4346C39.2719 47.9687 37.7088 47.2238 37.7265 46.7843C37.7451 46.324 39.4855 47.0583 40.5905 47.5716C40.6284 47.473 40.672 47.3703 40.7208 47.2632C39.6767 46.8364 37.6259 45.9334 37.6461 45.4302C37.6688 44.8685 40.2538 46.0846 41.1208 46.5087C41.1767 46.4155 41.2357 46.3199 41.2988 46.2215C40.3677 45.7525 39.1102 45.0463 39.1484 44.6712C39.1929 44.2331 40.939 45.1334 41.8512 45.6353C42.1515 45.7409 42.9686 46.0426 43.7841 46.4644C43.6145 46.0444 43.3739 45.61 43.0574 45.4078C43.0574 45.4078 43.086 44.4491 44.2157 45.4203C45.1236 46.201 45.9116 47.2764 45.7951 48.2937C45.8137 48.3941 45.8162 48.4952 45.7985 48.597C45.5254 50.158 44.5921 51.3728 40.8304 49.7399C39.6896 49.4102 37.9272 48.8291 37.8904 48.3746Z" fill="#E19194"/>
<path d="M45.6348 47.6743L51.1334 48.6724C51.1334 48.6724 52.0016 53.3772 49.9758 54.0898L44.4769 50.2406C44.4769 50.2406 44.3325 46.819 45.6348 47.6743Z" fill="#E19194"/>
<path d="M44.3338 24.4369C44.3338 24.4369 61.6985 25.0072 65.6055 53.5205C65.6055 53.5205 50.2668 62.7873 49.1092 63.215C49.1092 63.215 50.683 39.717 41.7293 31.4227C41.7293 31.4227 44.1892 29.997 44.3338 24.4369Z" fill="#EBB621"/>
<path opacity="0.44" d="M49.215 58.8173C50.4235 58.408 51.5407 57.6759 52.5415 56.8664C54.5899 55.2094 56.2734 53.1386 57.8392 51.0453C59.6636 48.6063 61.2833 46.0553 62.1601 43.1251C62.3426 42.5154 62.4888 41.9008 62.6023 41.283C63.8905 44.6468 64.9423 48.6799 65.6055 53.5202C65.6055 53.5202 50.2668 62.7871 49.1092 63.2148C49.1092 63.2148 49.2243 61.492 49.215 58.8173Z" fill="#EBB621"/>
<mask id="mask1_36_6585" style="mask-type:luminance" maskUnits="userSpaceOnUse" x="41" y="24" width="25" height="40">
<path d="M44.2811 24.4091C44.2811 24.4091 61.6458 24.9792 65.5527 53.4927C65.5527 53.4927 50.2141 62.7596 49.0565 63.1872C49.0565 63.1872 50.6302 39.6892 41.6766 31.3949C41.6766 31.3947 44.1365 29.969 44.2811 24.4091Z" fill="white"/>
</mask>
<g mask="url(#mask1_36_6585)">
<g opacity="0.36">
<path d="M42.0126 28.58C41.3463 28.7341 40.6697 29.6757 40.0116 30.6489C40.0531 30.1958 40.1069 29.7435 40.1716 29.2917C40.6947 28.6155 41.2359 28.0919 41.8619 27.9469C42.9968 27.6848 44.3558 28.4988 45.6701 29.2861C46.7728 29.9468 47.9134 30.6315 48.5388 30.3848C49.9812 29.8182 50.0722 28.6853 50.1778 27.3734C50.2715 26.2063 50.378 24.8837 51.6666 24.1241L52.0054 24.6817C51.0087 25.2693 50.9286 26.2683 50.8353 27.4249C50.7279 28.7598 50.6062 30.2727 48.7831 30.9889C47.8516 31.3542 46.6254 30.6199 45.327 29.8417C44.1265 29.1219 42.884 28.3784 42.0126 28.58Z" fill="white"/>
<path d="M40.4603 41.2569C40.4317 41.0224 40.4033 40.7878 40.3756 40.553C41.1589 40.0729 41.9337 39.3227 42.6925 38.5862C43.871 37.4425 45.0894 36.26 46.3976 36.0542C47.9589 35.8081 49.6394 36.6503 51.2647 37.4642C52.7258 38.1959 54.1051 38.887 55.1085 38.6186C57.382 38.01 57.8813 36.7337 58.4096 35.3827C58.8995 34.1306 59.4058 32.8357 61.264 32.0837L61.5146 32.6849C59.9191 33.3307 59.4848 34.441 59.025 35.6164C58.4872 36.9918 57.8774 38.5508 55.2813 39.2456C54.0338 39.5797 52.5433 38.8333 50.9657 38.0435C49.4344 37.2766 47.8506 36.4823 46.5016 36.6961C45.4021 36.869 44.2599 37.9773 43.1556 39.0494C42.2883 39.8909 41.4018 40.7484 40.4603 41.2569Z" fill="white"/>
<path d="M41.3094 48.8271C42.0546 48.3408 42.7888 47.7228 43.511 47.1133C44.9065 45.9357 46.3493 44.718 47.874 44.4739C49.7084 44.1807 51.6527 44.9716 53.533 45.7366C55.2428 46.4327 56.8581 47.0905 58.0945 46.7778C60.8854 46.073 61.5835 44.743 62.3227 43.3348C62.9924 42.0589 63.6851 40.7392 65.8873 39.9271L66.1187 40.5359C64.1542 41.2602 63.5491 42.413 62.9087 43.6331C62.1354 45.1065 61.3356 46.6302 58.2582 47.4072C56.8086 47.7725 55.095 47.0757 53.281 46.3374C51.4861 45.6066 49.6303 44.8513 47.9798 45.1154C46.6378 45.3302 45.3274 46.436 43.94 47.6067C43.108 48.3091 42.2607 49.0217 41.38 49.5538C41.3569 49.3116 41.3333 49.0693 41.3094 48.8271Z" fill="white"/>
<path d="M41.9436 56.0872C42.3538 55.7752 42.7609 55.4444 43.1643 55.1158C44.61 53.9379 46.105 52.72 47.6749 52.4758C49.5661 52.1819 51.5603 52.9717 53.4883 53.7364C55.2453 54.4334 56.9044 55.0925 58.1903 54.7763C61.0888 54.0663 61.8333 52.7296 62.6213 51.3144C63.3328 50.037 64.0684 48.716 66.3443 47.9025L66.5693 48.5136C64.527 49.2434 63.8822 50.4014 63.1997 51.6269C62.3779 53.1025 61.5281 54.6284 58.3495 55.4073C56.8565 55.7725 55.1009 55.0767 53.2422 54.3394C51.3973 53.6078 49.4894 52.8524 47.778 53.1177C46.3863 53.3344 45.0255 54.4432 43.5848 55.6168C43.0794 56.0286 42.5683 56.4435 42.0487 56.8247C42.0151 56.5782 41.9794 56.3319 41.9436 56.0872Z" fill="white"/>
</g>
</g>
<path opacity="0.44" d="M50.5564 55.2311C50.5564 55.2311 56.4894 50.6691 58.3706 43.6832C58.3706 43.6832 52.4376 54.2331 50.5564 55.2311Z" fill="#EBB621"/>
<path opacity="0.44" d="M45.3455 24.5789C45.3455 24.5789 46.1149 30.3706 41.6785 31.3952C41.6785 31.3952 44.3785 29.23 44.2832 24.4094L45.3455 24.5789Z" fill="#EBB621"/>
<path d="M46.2134 67.4916C46.2134 67.4916 25.7632 48.854 19.3411 54.0755C12.9191 59.2972 24.3113 68.8696 38.2312 70.1824L46.2134 67.4916Z" fill="#152232"/>
<path opacity="0.22" d="M24.3106 57.4574C24.3106 57.4574 31.038 57.9705 40.0752 67.685C40.0752 67.685 30.9965 59.6662 24.3106 57.4574Z" fill="white"/>
<path d="M41.8742 64.3554C41.8742 64.3554 64.0139 46.8197 70.9597 53.6628C77.9055 60.5059 64.1329 71.4038 47.6364 71.4038L41.8742 64.3554Z" fill="#152232"/>
<path opacity="0.22" d="M64.7368 57.0849C64.7368 57.0849 56.3499 56.5212 44.6287 66.9284C44.6287 66.9284 56.6332 58.9382 64.7368 57.0849Z" fill="white"/>
<path d="M45.0193 67.6856C45.0193 67.6856 37.0984 69.4876 35.9408 69.4876C34.7832 69.4876 34.3491 70.7708 35.2172 71.4834C35.6774 71.8612 36.6253 72.8398 37.4147 73.6761C38.1709 74.4771 39.3855 74.663 40.3538 74.1275L47.2124 70.8855L45.0193 67.6856Z" fill="#EBB621"/>
<path opacity="0.44" d="M35.5726 69.5374C35.9124 71.0536 37.4444 72.0649 39.1417 72.3722C41.9955 72.8889 44.4376 71.3491 47.0417 70.6367L47.2124 70.8857L40.2768 74.1701C39.3521 74.6817 38.1929 74.502 37.4714 73.7364C36.6711 72.8873 35.6883 71.8705 35.2172 71.4836C34.4485 70.8526 34.7017 69.7765 35.5726 69.5374Z" fill="#EBB621"/>
<path d="M51.242 25.7987C51.2983 25.7987 51.3546 25.7775 51.3976 25.7352C51.4834 25.6506 51.4834 25.5135 51.3976 25.429C51.3074 25.3402 49.1636 23.2591 46.9464 23.8047C46.8286 23.8337 46.757 23.9514 46.7863 24.0675C46.8158 24.1836 46.9353 24.2547 47.0531 24.2252C49.0262 23.7389 51.0665 25.7155 51.0867 25.7356C51.1297 25.7777 51.186 25.7987 51.242 25.7987Z" fill="white"/>
<path d="M51.951 24.405C52.0073 24.405 52.0636 24.3837 52.1065 24.3415C52.1924 24.2569 52.1924 24.1198 52.1065 24.035C52.0164 23.9462 49.8719 21.8649 47.6554 22.4107C47.5375 22.4398 47.466 22.5574 47.4953 22.6735C47.5248 22.7896 47.6447 22.8603 47.7621 22.8312C49.7386 22.3438 51.7751 24.3216 51.7955 24.3417C51.8384 24.384 51.8947 24.405 51.951 24.405Z" fill="white"/>
<path d="M17.9642 53.9758C17.9685 53.9205 17.9513 53.8635 17.9117 53.8181C17.8325 53.7275 17.6938 53.717 17.6019 53.795C17.5051 53.8769 15.2364 55.8251 15.6201 58.0446C15.6405 58.1625 15.7541 58.2419 15.8739 58.2218C15.9938 58.2017 16.0746 58.0898 16.0537 57.9717C15.7111 55.9964 17.8666 54.1422 17.8884 54.1236C17.9342 54.0847 17.9599 54.0312 17.9642 53.9758Z" fill="white"/>
<path d="M16.6078 53.176C16.6121 53.1207 16.5948 53.0639 16.5553 53.0185C16.4761 52.9277 16.3374 52.9174 16.2452 52.9953C16.1485 53.0771 13.8795 55.026 14.2634 57.2449C14.2839 57.3627 14.3974 57.4422 14.5173 57.422C14.6369 57.4019 14.7175 57.2894 14.6971 57.172C14.3538 55.1933 16.5099 53.3426 16.5317 53.3241C16.5778 53.2849 16.6034 53.2312 16.6078 53.176Z" fill="white"/>
<path d="M30.0252 28.6934C30.0449 28.6524 30.0486 28.6039 30.032 28.5581C29.9984 28.4661 29.8958 28.418 29.8022 28.4511C29.7042 28.4858 27.3948 29.319 27.0291 31.1232C27.0098 31.2191 27.0729 31.3122 27.1703 31.3314C27.2677 31.3504 27.3626 31.2885 27.3816 31.1923C27.7065 29.5863 29.9012 28.792 29.9235 28.7842C29.97 28.7679 30.0054 28.7343 30.0252 28.6934Z" fill="white"/>
<path d="M29.2278 27.6925C29.2476 27.6515 29.2512 27.6032 29.2346 27.5572C29.2012 27.465 29.0984 27.4171 29.0049 27.45C28.9068 27.4847 26.597 28.3183 26.2317 30.122C26.2122 30.2178 26.2755 30.311 26.3729 30.3303C26.4703 30.3493 26.565 30.2869 26.5843 30.1912C26.9094 28.5825 29.1039 27.7913 29.1259 27.7833C29.1726 27.767 29.2081 27.7334 29.2278 27.6925Z" fill="white"/>
<path d="M32.3207 2.04784C32.3402 2.00691 32.344 1.9586 32.3275 1.91252C32.2941 1.82059 32.1912 1.77272 32.0977 1.8056C31.9996 1.84027 29.6903 2.67346 29.3245 4.47763C29.305 4.57358 29.3684 4.66663 29.4658 4.68587C29.5631 4.70488 29.658 4.64293 29.6771 4.54674C30.002 2.94076 32.1967 2.14648 32.2189 2.13865C32.2657 2.12233 32.3011 2.08878 32.3207 2.04784Z" fill="#A8D5F6"/>
<path d="M31.5238 1.04684C31.5433 1.00591 31.5472 0.957596 31.5306 0.911519C31.4972 0.819365 31.3944 0.771499 31.3008 0.804379C31.2028 0.839049 28.893 1.67269 28.5277 3.47641C28.5084 3.57214 28.5715 3.66541 28.6689 3.68465C28.7663 3.70366 28.8609 3.64125 28.8802 3.54552C29.2053 1.93685 31.3998 1.14571 31.4218 1.13766C31.4684 1.12133 31.504 1.08778 31.5238 1.04684Z" fill="#A8D5F6"/>
<path d="M74.497 56.6088C74.5433 56.6404 74.6018 56.6544 74.6616 56.6437C74.781 56.6222 74.86 56.5093 74.8382 56.3916C74.8153 56.2679 74.2522 53.3552 72.1136 52.5621C71.9998 52.52 71.8732 52.5766 71.8303 52.6887C71.7876 52.8007 71.8448 52.926 71.9588 52.9676C73.8626 53.6726 74.4007 56.4415 74.4057 56.4695C74.4168 56.5285 74.4509 56.5773 74.497 56.6088Z" fill="white"/>
<path d="M75.8795 55.8594C75.9259 55.8909 75.9844 55.905 76.0441 55.8943C76.1636 55.8728 76.2428 55.7599 76.221 55.6422C76.1981 55.5185 75.6346 52.6054 73.4964 51.8129C73.3829 51.7708 73.256 51.8274 73.2133 51.9395C73.1706 52.0515 73.2285 52.1768 73.3418 52.2186C75.2491 52.9248 75.7833 55.6923 75.7885 55.7203C75.7992 55.7789 75.8332 55.8278 75.8795 55.8594Z" fill="white"/>
<path d="M36.1962 51.0724C36.1535 51.0682 36.1093 51.08 36.0736 51.1091C36.0021 51.1668 35.9917 51.2706 36.0502 51.341C36.1118 51.4151 37.5768 53.1501 39.2979 52.9012C39.3894 52.888 39.4525 52.8041 39.4391 52.714C39.4257 52.6238 39.3406 52.5612 39.2491 52.5748C37.7173 52.7969 36.3229 51.1487 36.3091 51.1319C36.2798 51.0968 36.2389 51.0767 36.1962 51.0724Z" fill="white"/>
<path d="M35.5556 52.0759C35.5129 52.0717 35.4686 52.0835 35.433 52.1124C35.3615 52.1701 35.351 52.2739 35.4096 52.3446C35.4711 52.4186 36.9366 54.1539 38.6573 53.9047C38.7488 53.8915 38.8119 53.8076 38.7985 53.7175C38.7851 53.6273 38.6997 53.5649 38.6085 53.5783C37.0742 53.8011 35.6825 52.1522 35.6684 52.1354C35.6391 52.1001 35.5983 52.0799 35.5556 52.0759Z" fill="white"/>
<path d="M30.9412 17.5202C30.8218 16.9946 30.6247 15.9905 30.6247 15.4293C30.6247 11.3146 34.0104 7.9787 38.1871 7.9787C42.3638 7.9787 45.7495 11.3144 45.7495 15.4293C45.7495 16.7931 45.3758 18.0703 44.7265 19.1699L43.6202 24.2866L38.6675 28.4506L32.1299 27.9952L30.4129 18.3013L30.9412 17.5202Z" fill="#E19194"/>
<path d="M41.7507 16.1198C41.7507 16.1198 38.8488 15.6505 38.1991 14.4556L38.3723 13.7303L38.6754 13.8582L38.632 14.285L38.9351 13.9436C38.9351 13.9436 40.4076 15.4371 41.8804 15.5226C41.8808 15.5223 42.1839 16.1198 41.7507 16.1198Z" fill="#152232"/>
<path d="M30.5378 15.7848C30.5378 15.7848 32.9673 15.3155 33.5112 14.1206L33.3662 13.3952L33.1123 13.5232L33.1487 13.9499L32.8948 13.6086C32.8948 13.6086 31.6618 15.1021 30.4291 15.1875C30.4291 15.1875 30.1752 15.7848 30.5378 15.7848Z" fill="#152232"/>
<path d="M35.3047 18.7957C35.3047 18.7957 33.7039 18.4611 33.5584 19.3692C33.4128 20.2773 34.5771 20.2773 35.1592 20.2294" stroke="#152232" stroke-miterlimit="10"/>
<path d="M35.3564 18.8454C35.3564 18.8454 33.7556 18.5107 33.6101 19.4189C33.4646 20.327 34.6288 20.327 35.2109 20.2791L35.3564 18.8454Z" fill="url(#paint0_linear_36_6585)"/>
<path d="M27.3624 19.1704C27.0464 18.9049 27.0085 18.4372 27.2779 18.1258C27.5474 17.8145 28.0222 17.7771 28.3382 18.0426C28.5741 18.2406 28.6544 18.5513 28.5686 18.8255L33.1608 22.6821C33.285 22.7863 33.2999 22.972 33.1941 23.0943C33.0881 23.2167 32.8999 23.2317 32.7755 23.1272L28.1833 19.2706C27.9223 19.3976 27.5983 19.3686 27.3624 19.1704Z" fill="white"/>
<path d="M27.455 19.0642C27.7115 19.2798 28.0966 19.2498 28.315 18.9973C28.5334 18.745 28.5023 18.3656 28.2457 18.15C27.9892 17.9346 27.6041 17.9644 27.3857 18.2169C27.1673 18.4694 27.1982 18.8488 27.455 19.0642Z" fill="#CD4170"/>
<path d="M33.0343 22.9603C33.0765 22.9113 33.0706 22.8382 33.0212 22.7966L28.0476 18.6197C27.9979 18.5781 27.9236 18.5839 27.8812 18.6326C27.839 18.6816 27.8449 18.7548 27.8943 18.7964L32.8679 22.9733C32.9176 23.0151 32.9921 23.0093 33.0343 22.9603Z" fill="#CD4170"/>
<path d="M32.7831 23.1446C32.7831 23.1446 35.8878 22.619 37.1006 23.4792" stroke="#152232" stroke-miterlimit="10"/>
<path opacity="0.5" d="M41.6499 17.0395C41.6524 17.0773 41.6562 17.1146 41.6562 17.1531C41.6562 18.2238 40.7075 19.0917 39.5371 19.0917C38.3668 19.0917 37.418 18.2236 37.418 17.1531C37.418 17.1148 37.4219 17.0773 37.4244 17.0395H41.6499Z" fill="#E19194"/>
<path opacity="0.5" d="M33.7799 16.7911C33.7815 16.8289 33.7842 16.8663 33.7842 16.9047C33.7842 17.9755 33.1178 18.8436 32.2958 18.8436C31.4737 18.8436 30.8074 17.9755 30.8074 16.9047C30.8074 16.8665 30.8101 16.8289 30.8117 16.7911H33.7799Z" fill="#E19194"/>
<path d="M41.3374 17.0279C41.1916 17.8126 40.388 18.4134 39.4151 18.4134C38.4423 18.4134 37.6386 17.8126 37.4929 17.0279H41.3374Z" fill="white"/>
<path opacity="0.19" d="M37.5769 17.3111C37.5394 17.2201 37.511 17.1254 37.4929 17.0279H41.3374C41.3192 17.1254 41.2909 17.2201 41.2534 17.3111H37.5769Z" fill="#152232"/>
<path d="M37.4934 17.028L41.5868 17.0649L41.6338 16.9265L37.4324 16.788L37.4934 17.028Z" fill="#152232"/>
<path d="M39.7813 16.9349C39.8337 17.0356 39.8657 17.147 39.8657 17.2664C39.8657 17.6887 39.4966 18.0312 39.0411 18.0312C38.5857 18.0312 38.2166 17.6887 38.2166 17.2664C38.2166 17.1472 38.2486 17.0356 38.301 16.9349H39.7813Z" fill="#152232"/>
<path d="M30.8011 16.901C30.8862 17.689 31.4897 18.311 32.2457 18.3374C33.0017 18.3636 33.6478 17.7847 33.7891 17.0046L30.8011 16.901Z" fill="white"/>
<path opacity="0.19" d="M33.7156 17.2853C33.7481 17.1954 33.7735 17.1016 33.791 17.0046L30.8028 16.901C30.8135 16.999 30.8321 17.0943 30.858 17.1862L33.7156 17.2853Z" fill="#152232"/>
<path d="M33.7911 17.0039L30.6081 16.9308L30.5768 16.791L33.8472 16.7657L33.7911 17.0039Z" fill="#152232"/>
<path d="M31.4787 16.8313C31.4308 16.9304 31.3999 17.0409 31.3956 17.1601C31.3806 17.5821 31.6796 17.9351 32.0637 17.9483C32.4479 17.9617 32.7714 17.6302 32.7866 17.2082C32.7909 17.0889 32.7678 16.9767 32.7271 16.8744L31.4787 16.8313Z" fill="#152232"/>
<path opacity="0.55" d="M34.8522 20.263C34.8522 20.263 35.3485 21.6579 34.6417 21.7035C34.6417 21.7035 34.088 21.5013 34.8522 20.263Z" fill="white"/>
<g opacity="0.44">
<path d="M42.9162 16.3084C42.9162 16.3084 43.4209 17.7003 42.7143 17.75C42.7143 17.75 42.1595 17.5512 42.9162 16.3084Z" fill="white"/>
<path d="M42.0774 18.9063C42.0774 18.9063 42.5819 20.2982 41.8756 20.3479C41.8756 20.3479 41.3205 20.1491 42.0774 18.9063Z" fill="white"/>
</g>
<path d="M45.1049 17.9713C45.1049 17.9713 46.4256 16.4749 47.2181 17.581C48.0105 18.6871 46.0955 23.0461 44.1144 21.8098C44.1144 21.8098 44.2465 18.8173 45.1049 17.9713Z" fill="#E19194"/>
<path opacity="0.5" d="M45.3896 18.6853C45.3896 18.6853 46.132 17.8441 46.5777 18.4659C47.0231 19.0877 45.9465 21.5381 44.8329 20.8431C44.8329 20.8431 44.9069 19.1606 45.3896 18.6853Z" fill="#E19194"/>
<path d="M47.0532 17.2481C47.0532 17.2481 45.3934 17.109 44.7278 19.1697C44.0621 21.2304 43.8196 20.0358 43.9005 18.4427C43.9813 16.8497 44.3856 14.6197 43.9813 13.9827L43.5772 15.6553C43.5772 15.6553 43.0112 11.4341 40.3436 10.8765C37.6757 10.3189 35.4123 11.7526 34.1997 10.9561L35.1698 10.4783C35.1698 10.4783 32.9871 10.2395 32.502 11.3545C32.017 12.4695 31.3702 14.6199 30.1576 14.3014C30.1576 14.3014 28.7026 14.3014 28.7834 12.9475L29.7535 13.1864C29.7535 13.1864 28.7026 12.3899 29.1878 10.8767C29.1878 10.8767 29.5919 11.2748 29.8346 11.4343C30.077 11.5936 31.5323 4.82383 38.7269 6.25736C38.7269 6.25736 42.769 5.3016 45.8409 6.57587L45.1133 6.89439C45.1133 6.89439 48.266 7.85015 48.751 10.3987L47.8617 9.84109C47.8617 9.84109 49.5594 15.496 47.0532 17.2481Z" fill="#152232"/>
<path d="M31.4976 3.86241C32.2427 3.12808 33.4026 3.05538 34.2329 3.63962C34.4992 2.73978 35.3412 2.08173 36.3406 2.08173C36.9277 2.08173 37.4597 2.3101 37.8538 2.67961C38.1328 2.55301 38.4425 2.48054 38.7699 2.48054C39.522 2.48054 40.1852 2.85341 40.5811 3.42109C40.95 3.14486 41.4086 2.97911 41.9077 2.97911C42.8103 2.97911 43.585 3.51593 43.923 4.28269C44.2517 4.08944 44.6347 3.97648 45.0454 3.97648C46.2587 3.97648 47.2422 4.94544 47.2422 6.14099C47.2422 7.33653 46.2587 8.30527 45.0454 8.30527C44.803 8.30527 44.5705 8.26501 44.3523 8.19366C44.0111 9.50708 42.8051 10.4794 41.3657 10.4794C40.2778 10.4794 39.3231 9.92334 38.7735 9.08545C38.2148 9.6377 37.442 9.97948 36.5879 9.97948C35.0314 9.97948 33.7477 8.84321 33.5354 7.36762C32.8303 7.5479 32.0498 7.36807 31.4974 6.82364C30.6676 6.00589 30.6676 4.68016 31.4976 3.86241Z" fill="#CD4170"/>
<path opacity="0.47" d="M31.4976 3.86284C31.7458 3.61837 32.0402 3.44904 32.3526 3.35107C32.3111 3.55663 32.2984 3.77047 32.3181 3.99347C32.428 5.23465 33.4564 6.43243 34.6913 6.46687C34.5446 7.3108 34.9719 8.06302 36.0053 8.30795C37.0976 8.56674 38.255 8.19365 39.0157 7.42018C40.0962 9.14717 43.1411 8.62266 43.3082 6.829C44.696 7.21775 45.7574 5.55182 45.5592 4.03865C46.5241 4.26703 47.2422 5.12035 47.2422 6.1412C47.2422 7.33652 46.2587 8.30548 45.0454 8.30548C44.803 8.30548 44.5705 8.26522 44.3523 8.19387C44.0111 9.50729 42.8051 10.4796 41.3657 10.4796C40.2778 10.4796 39.3231 9.92355 38.7735 9.08566C38.2148 9.63792 37.442 9.97969 36.5879 9.97969C35.0314 9.97969 33.7477 8.84342 33.5354 7.36784C32.8303 7.54812 32.0498 7.36828 31.4974 6.82386C30.6676 6.00633 30.6676 4.6806 31.4976 3.86284Z" fill="#CD4170"/>
<path d="M40.8601 4.19829L41.4751 0.806477C41.4751 0.806477 38.8434 0.0086277 37.1227 0.208146L37.3252 4.09741C37.3252 4.09741 39.1317 5.39607 40.8601 4.19829Z" fill="#EBB621"/>
<path opacity="0.44" d="M37.0564 0.294198L37.1901 0.122192C39.0672 1.54074 41.414 0.713589 41.4376 0.704866L41.5137 0.908188C41.5039 0.911767 41.1152 1.04866 40.5279 1.12225L40.6825 1.14573L40.1424 4.6042L39.9251 4.5711L40.4625 1.1303C40.2634 1.15311 40.0436 1.1681 39.8087 1.1681C39.6561 1.1681 39.496 1.15893 39.3328 1.14439L38.9732 4.68696L38.7543 4.66549L39.1142 1.12135C38.6926 1.06498 38.2483 0.949343 37.8092 0.74468L37.8937 4.40781L37.6737 4.41273L37.5865 0.629935C37.4076 0.533083 37.2301 0.425272 37.0564 0.294198Z" fill="#152232"/>
<path d="M51.231 16.9969C51.231 16.9486 51.2707 16.9097 51.3198 16.9097H51.859L51.3479 16.6292C51.3052 16.6057 51.2898 16.5525 51.3136 16.5104C51.3375 16.4684 51.3913 16.4531 51.4342 16.4766L52.2233 16.9097H53.1113L51.7547 15.7506C51.7177 15.719 51.7139 15.6638 51.7459 15.6273C51.7779 15.5909 51.834 15.5871 51.871 15.6186L53.2568 16.8028V15.8427L52.8243 15.12C52.7995 15.0784 52.8134 15.025 52.8556 15.0004C52.8978 14.976 52.9521 14.9896 52.9771 15.0312L53.257 15.499V14.9957C53.257 14.9474 53.2967 14.9084 53.3455 14.9084C53.3946 14.9084 53.4341 14.9476 53.4341 14.9957V15.5269L53.7188 15.0234C53.7426 14.9814 53.7967 14.9662 53.8393 14.9896C53.882 15.0131 53.8975 15.0664 53.8736 15.1084L53.4341 15.8859V16.79L54.75 15.5495C54.7854 15.5162 54.8415 15.5175 54.8753 15.5522C54.9091 15.5871 54.908 15.6423 54.8726 15.6757L53.5633 16.9099H54.4734L55.2167 16.478C55.259 16.4536 55.3132 16.4672 55.3382 16.5088C55.3629 16.5504 55.3491 16.6039 55.3069 16.6283L54.8224 16.9097H55.3768C55.4258 16.9097 55.4653 16.9488 55.4653 16.9969C55.4653 17.0452 55.4256 17.0841 55.3768 17.0841H54.8142L55.3148 17.3588C55.3575 17.3823 55.3729 17.4355 55.3491 17.4776C55.333 17.5062 55.3028 17.5225 55.2717 17.5225C55.2571 17.5225 55.2422 17.519 55.2285 17.5116L54.4498 17.0844H53.586L54.9359 18.2379C54.9729 18.2694 54.9768 18.3246 54.9448 18.3611C54.9273 18.381 54.9025 18.3913 54.8778 18.3913C54.8571 18.3913 54.8365 18.3844 54.8197 18.37L53.4339 17.1859V18.1032L53.8723 18.8355C53.897 18.8771 53.8832 18.9306 53.8409 18.9552C53.7987 18.9798 53.7444 18.9659 53.7195 18.9243L53.4339 18.447V18.9932C53.4339 19.0415 53.3941 19.0804 53.3453 19.0804C53.2963 19.0804 53.2568 19.0413 53.2568 18.9932V18.4389L52.978 18.9321C52.9619 18.9608 52.9317 18.9771 52.9006 18.9771C52.886 18.9771 52.8713 18.9735 52.8574 18.9661C52.8148 18.9427 52.7993 18.8894 52.8232 18.8474L53.2568 18.0802V17.1991L51.9409 18.4394C51.9237 18.4555 51.9016 18.4635 51.8796 18.4635C51.8562 18.4635 51.8331 18.4546 51.8156 18.4367C51.7818 18.4018 51.7829 18.3466 51.8183 18.3132L53.1215 17.0848H52.1795L51.446 17.5111C51.4319 17.5194 51.4162 17.5232 51.401 17.5232C51.3706 17.5232 51.3411 17.5078 51.3245 17.4803C51.2995 17.4387 51.3136 17.3852 51.3559 17.3606L51.8306 17.0848H51.3198C51.2707 17.0841 51.231 17.045 51.231 16.9969Z" fill="white"/>
<path d="M4.08082 22.5074C4.08082 22.4591 4.12055 22.4202 4.16959 22.4202H4.70879L4.19774 22.1399C4.15506 22.1164 4.13962 22.0632 4.16346 22.0212C4.1873 21.9791 4.24111 21.9639 4.28401 21.9874L5.07317 22.4204H5.96109L4.60458 21.2613C4.56758 21.2298 4.56372 21.1745 4.59573 21.1381C4.62797 21.1016 4.68382 21.0978 4.72082 21.1294L6.10662 22.3135V21.3535L5.67413 20.6308C5.64915 20.5892 5.66323 20.5357 5.70546 20.5111C5.74768 20.4867 5.80194 20.5004 5.82692 20.542L6.10685 21.0097V20.5064C6.10685 20.4581 6.14657 20.4192 6.19538 20.4192C6.24442 20.4192 6.28393 20.4583 6.28393 20.5064V21.0377L6.56863 20.5342C6.59246 20.4921 6.64649 20.4771 6.68917 20.5004C6.73186 20.5239 6.74729 20.5771 6.72346 20.6192L6.28393 21.3966V22.3007L7.5998 21.0602C7.63521 21.0269 7.69129 21.0283 7.72512 21.0629C7.75895 21.0978 7.75781 21.1531 7.7224 21.1864L6.41311 22.4206H7.32327L8.06657 21.9887C8.1088 21.9643 8.16306 21.978 8.1878 22.0196C8.21278 22.0612 8.1987 22.1146 8.15647 22.1393L7.67199 22.4206H8.2264C8.27544 22.4206 8.31494 22.4598 8.31494 22.5079C8.31494 22.5562 8.27521 22.5951 8.2264 22.5951H7.66382L8.16442 22.8698C8.2071 22.8933 8.22254 22.9465 8.1987 22.9885C8.18236 23.0172 8.15239 23.0335 8.12129 23.0335C8.10676 23.0335 8.09177 23.0299 8.07815 23.0225L7.29944 22.5953H6.43559L7.78551 23.7486C7.82251 23.7801 7.82637 23.8354 7.79436 23.8718C7.77688 23.8918 7.75214 23.902 7.72739 23.902C7.70673 23.902 7.68607 23.8951 7.66927 23.8808L6.28347 22.6967V23.6139L6.72187 24.3463C6.74662 24.3879 6.73277 24.4413 6.69054 24.4659C6.64831 24.4905 6.59405 24.4767 6.56908 24.4351L6.28324 23.9577V24.504C6.28324 24.5523 6.24352 24.5912 6.19471 24.5912C6.14567 24.5912 6.10616 24.552 6.10616 24.504V23.9497L5.82737 24.4429C5.81125 24.4715 5.78105 24.4878 5.74995 24.4878C5.73542 24.4878 5.72066 24.4843 5.70681 24.4769C5.66413 24.4534 5.64869 24.4002 5.67253 24.3581L6.10616 23.5909V22.7098L4.79029 23.9501C4.77304 23.9662 4.75102 23.9743 4.729 23.9743C4.70561 23.9743 4.68245 23.9653 4.66497 23.9474C4.63115 23.9126 4.63228 23.8573 4.6677 23.824L5.97086 22.5955H5.0289L4.29537 23.0219C4.28129 23.0302 4.26563 23.034 4.25042 23.034C4.22 23.034 4.19048 23.0185 4.17391 22.991C4.14916 22.9494 4.16301 22.8959 4.20524 22.8713L4.67996 22.5955H4.16914C4.12056 22.5947 4.08082 22.5555 4.08082 22.5074Z" fill="white"/>
<path opacity="0.44" d="M20.7538 18.2611C20.7538 18.2135 20.7931 18.1748 20.8415 18.1748H21.3743L20.8694 17.8976C20.8272 17.8744 20.812 17.8218 20.8356 17.7802C20.8592 17.7386 20.9125 17.7236 20.9548 17.7469L21.7344 18.1748H22.6119L21.2715 17.0296C21.2349 16.9982 21.2311 16.9439 21.2626 16.9079C21.2944 16.8719 21.3496 16.8681 21.3861 16.8991L22.7556 18.0692V17.1204L22.3281 16.4062C22.3036 16.365 22.3174 16.3122 22.359 16.2881C22.4007 16.2639 22.4543 16.2776 22.4788 16.3185L22.7554 16.7806V16.2831C22.7554 16.2355 22.7946 16.1968 22.843 16.1968C22.8913 16.1968 22.9306 16.2355 22.9306 16.2831V16.8081L23.2119 16.3107C23.2355 16.2691 23.2889 16.2541 23.3311 16.2773C23.3733 16.3006 23.3885 16.3532 23.3649 16.3948L22.9306 17.1629V18.0562L24.2311 16.8305C24.266 16.7976 24.3214 16.7987 24.355 16.8332C24.3884 16.8676 24.3872 16.9222 24.3523 16.9553L23.0584 18.1748H23.9579L24.6926 17.748C24.7344 17.7238 24.788 17.7375 24.8125 17.7784C24.837 17.8193 24.8231 17.8724 24.7816 17.8965L24.303 18.1745H24.8508C24.8992 18.1745 24.9385 18.2132 24.9385 18.2609C24.9385 18.3085 24.8992 18.3472 24.8508 18.3472H24.2948L24.7895 18.6188C24.8318 18.642 24.847 18.6946 24.8234 18.7362C24.8072 18.7646 24.7775 18.7805 24.7469 18.7805C24.7323 18.7805 24.7178 18.7769 24.7044 18.7695L23.935 18.3472H23.0814L24.4152 19.4871C24.4517 19.5184 24.4556 19.5727 24.424 19.6088C24.4068 19.6284 24.3822 19.6385 24.3577 19.6385C24.3373 19.6385 24.3169 19.6316 24.3003 19.6175L22.9308 18.4472V19.3535L23.364 20.0774C23.3885 20.1185 23.3747 20.1713 23.3331 20.1955C23.2914 20.2196 23.2378 20.206 23.2133 20.165L22.9308 19.6933V20.233C22.9308 20.2807 22.8916 20.3194 22.8432 20.3194C22.7949 20.3194 22.7556 20.2807 22.7556 20.233V19.6853L22.48 20.1726C22.4638 20.201 22.4341 20.2169 22.4035 20.2169C22.3891 20.2169 22.3744 20.2133 22.361 20.206C22.3188 20.1827 22.3036 20.1301 22.3272 20.0885L22.7558 19.3305V18.46L21.4556 19.6857C21.4386 19.7016 21.4168 19.7096 21.395 19.7096C21.3718 19.7096 21.3489 19.7007 21.3316 19.683C21.2983 19.6486 21.2994 19.594 21.3344 19.5609L22.6221 18.347H21.6913L20.9664 18.7682C20.9523 18.7762 20.9371 18.7803 20.9218 18.78C20.8919 18.78 20.8626 18.7648 20.8463 18.7375C20.8217 18.6964 20.8356 18.6436 20.8771 18.6194L21.3462 18.347H20.8413C20.7929 18.3472 20.7538 18.3088 20.7538 18.2611Z" fill="#196EBA"/>
<path opacity="0.44" d="M54.0049 26.2886C54.0049 26.2602 54.0283 26.2372 54.0571 26.2372H54.3747L54.0737 26.0721C54.0485 26.0582 54.0394 26.0269 54.0535 26.0021C54.0676 25.9773 54.0993 25.9683 54.1245 25.9822L54.5893 26.2372H55.1124L54.3132 25.5543C54.2914 25.5357 54.2891 25.5031 54.308 25.4818C54.3268 25.4603 54.36 25.4581 54.3815 25.4767L55.1979 26.1743V25.6086L54.9432 25.1828C54.9287 25.1584 54.9369 25.1268 54.9616 25.1123C54.9866 25.098 55.0184 25.106 55.0331 25.1304L55.1979 25.406V25.1094C55.1979 25.081 55.2213 25.058 55.2502 25.058C55.279 25.058 55.3024 25.081 55.3024 25.1094V25.4223L55.4702 25.1257C55.4842 25.1009 55.516 25.0922 55.5412 25.1058C55.5664 25.1197 55.5755 25.151 55.5614 25.1758L55.3026 25.6337V26.1663L56.0777 25.4355C56.0986 25.4158 56.1315 25.4167 56.1515 25.4371C56.1715 25.4577 56.1708 25.4901 56.1499 25.5098L55.3787 26.2367H55.9149L56.3529 25.9824C56.3776 25.9681 56.4096 25.9761 56.4244 26.0005C56.4391 26.0249 56.4307 26.0564 56.406 26.071L56.1206 26.2367H56.4473C56.4761 26.2367 56.4995 26.2598 56.4995 26.2882C56.4995 26.3166 56.4761 26.3396 56.4473 26.3396H56.1158L56.4107 26.5016C56.4359 26.5154 56.445 26.5467 56.4309 26.5716C56.4214 26.5886 56.4037 26.598 56.3853 26.598C56.3767 26.598 56.3681 26.5957 56.3599 26.5915L55.9011 26.3398H55.3923L56.1873 27.0194C56.2091 27.0379 56.2114 27.0706 56.1926 27.0918C56.1821 27.1035 56.1678 27.1095 56.1531 27.1095C56.141 27.1095 56.1288 27.1055 56.1188 27.097L55.3024 26.3993V26.9397L55.5607 27.3712C55.5755 27.3956 55.5671 27.4271 55.5424 27.4417C55.5176 27.4562 55.4856 27.4479 55.4708 27.4235L55.3026 27.1424V27.4643C55.3026 27.4927 55.2792 27.5157 55.2504 27.5157C55.2216 27.5157 55.1982 27.4927 55.1982 27.4643V27.1377L55.034 27.4282C55.0245 27.4452 55.0068 27.4546 54.9884 27.4546C54.9798 27.4546 54.9711 27.4526 54.963 27.4481C54.9378 27.4343 54.9287 27.403 54.9428 27.3781L55.1982 26.9261V26.4072L54.4231 27.1379C54.4129 27.1475 54.3999 27.1522 54.387 27.1522C54.3731 27.1522 54.3595 27.1469 54.3493 27.1363C54.3293 27.1158 54.33 27.0833 54.3509 27.0636L55.1185 26.3401H54.5636L54.1316 26.591C54.1232 26.5959 54.1141 26.5982 54.105 26.5982C54.0871 26.5982 54.0696 26.5892 54.0601 26.5729C54.0453 26.5485 54.0537 26.517 54.0785 26.5024L54.3582 26.3401H54.0571C54.0283 26.3401 54.0049 26.317 54.0049 26.2886Z" fill="#196EBA"/>
<path d="M50.1084 6.61738C50.1084 6.58897 50.1318 6.56594 50.1606 6.56594H50.4782L50.1772 6.40086C50.152 6.387 50.1429 6.35568 50.157 6.33085C50.1711 6.30602 50.2029 6.29708 50.2281 6.31095L50.6928 6.56594H51.2159L50.4167 5.88328C50.3949 5.86471 50.3927 5.83206 50.4115 5.81058C50.4303 5.78911 50.4635 5.78687 50.4851 5.80544L51.3015 6.50308V5.93741L51.0467 5.51175C51.0322 5.48737 51.0404 5.45584 51.0651 5.4413C51.0901 5.42698 51.1219 5.43503 51.1366 5.45941L51.3015 5.73476V5.43816C51.3015 5.40976 51.3248 5.38672 51.3537 5.38672C51.3825 5.38672 51.4059 5.40976 51.4059 5.43816V5.75109L51.5737 5.45449C51.5877 5.42966 51.6195 5.42094 51.6447 5.43459C51.6699 5.44845 51.679 5.47977 51.6649 5.5046L51.4061 5.96246V6.49503L52.1812 5.76428C52.2021 5.7446 52.235 5.74549 52.255 5.76585C52.275 5.78643 52.2743 5.81886 52.2534 5.83854L51.4822 6.56549H52.0184L52.4564 6.31117C52.4811 6.29685 52.5131 6.30491 52.5279 6.32929C52.5424 6.35367 52.5342 6.38521 52.5095 6.39974L52.2241 6.56549H52.5508C52.5796 6.56549 52.603 6.58853 52.603 6.61693C52.603 6.64534 52.5796 6.66838 52.5508 6.66838H52.2193L52.5143 6.83032C52.5395 6.84419 52.5485 6.8755 52.5345 6.90033C52.5249 6.91733 52.5072 6.92672 52.4888 6.92672C52.4802 6.92672 52.4716 6.92471 52.4634 6.92024L52.0046 6.6686H51.4958L52.2909 7.34813C52.3127 7.36669 52.3149 7.39935 52.2961 7.4206C52.2856 7.43223 52.2713 7.43827 52.2566 7.43827C52.2445 7.43827 52.2323 7.43424 52.2223 7.42574L51.4059 6.7281V7.2685L51.6643 7.69997C51.679 7.72457 51.6706 7.75589 51.6459 7.77043C51.6211 7.78497 51.5891 7.77669 51.5744 7.75231L51.4061 7.47115V7.79302C51.4061 7.82143 51.3827 7.84446 51.3539 7.84446C51.3251 7.84446 51.3017 7.82143 51.3017 7.79302V7.46645L51.1375 7.75701C51.128 7.77401 51.1103 7.7834 51.0919 7.7834C51.0833 7.7834 51.0747 7.78139 51.0665 7.77691C51.0413 7.76305 51.0322 7.73173 51.0463 7.7069L51.3017 7.25486V6.73593L50.5266 7.46668C50.5166 7.47629 50.5034 7.48099 50.4905 7.48099C50.4767 7.48099 50.463 7.47562 50.4528 7.46511C50.4328 7.44453 50.4335 7.4121 50.4544 7.39242L51.222 6.66883H50.6671L50.2351 6.92001C50.2267 6.92494 50.2176 6.92717 50.2085 6.92717C50.1906 6.92717 50.1733 6.91822 50.1636 6.9019C50.1491 6.87729 50.1572 6.84598 50.182 6.83144L50.4617 6.66905H50.1606C50.1318 6.66883 50.1084 6.64579 50.1084 6.61738Z" fill="#A8D5F6"/>
<path d="M1.4092 55.2573C1.4092 55.2289 1.43258 55.2058 1.46142 55.2058H1.77904L1.47799 55.0408C1.45279 55.0269 1.44371 54.9956 1.45778 54.9707C1.47186 54.9459 1.50364 54.937 1.52884 54.9508L1.99357 55.2058H2.51666L1.7175 54.5232C1.69571 54.5046 1.69344 54.4719 1.71229 54.4505C1.73113 54.429 1.76405 54.4268 1.78585 54.4453L2.60224 55.143V54.5773L2.34752 54.1516C2.33299 54.1273 2.34116 54.0957 2.36591 54.0812C2.39065 54.0669 2.42267 54.0749 2.43742 54.0993L2.60224 54.3749V54.0783C2.60224 54.0499 2.62563 54.0268 2.65446 54.0268C2.68329 54.0268 2.70668 54.0499 2.70668 54.0783V54.3912L2.87445 54.0946C2.88853 54.0698 2.92032 54.0611 2.94552 54.0747C2.97072 54.0886 2.9798 54.1199 2.96572 54.1447L2.7069 54.6026V55.1351L3.48199 54.4044C3.50287 54.3847 3.53579 54.3856 3.55577 54.406C3.57575 54.4265 3.57507 54.459 3.55419 54.4787L2.78296 55.2056H3.31921L3.75715 54.9513C3.78189 54.937 3.81391 54.945 3.82866 54.9694C3.84319 54.9938 3.83502 55.0253 3.81027 55.0399L3.5249 55.2056H3.8516C3.88043 55.2056 3.90381 55.2286 3.90381 55.257C3.90381 55.2854 3.88043 55.3085 3.8516 55.3085H3.52013L3.81504 55.4704C3.84024 55.4843 3.84932 55.5156 3.83524 55.5404C3.82571 55.5574 3.808 55.5668 3.78961 55.5668C3.78099 55.5668 3.77236 55.5648 3.76419 55.5603L3.30536 55.3087H2.79658L3.59164 55.9882C3.61344 56.0068 3.61571 56.0395 3.59687 56.0607C3.58642 56.0723 3.57212 56.0784 3.55736 56.0784C3.54533 56.0784 3.53307 56.0743 3.52308 56.0658L2.70668 55.3682V55.9086L2.96504 56.3401C2.9798 56.3645 2.97139 56.396 2.94665 56.4105C2.9219 56.4251 2.8899 56.4168 2.87514 56.3924L2.7069 56.1113V56.4331C2.7069 56.4615 2.68352 56.4846 2.65469 56.4846C2.62586 56.4846 2.60247 56.4615 2.60247 56.4331V56.1066L2.43833 56.3971C2.42879 56.4141 2.41109 56.4235 2.3927 56.4235C2.38407 56.4235 2.37545 56.4215 2.36727 56.417C2.34207 56.4032 2.33299 56.3718 2.34706 56.347L2.60247 55.8952V55.3763L1.82739 56.107C1.8174 56.1166 1.80423 56.1213 1.79129 56.1213C1.77767 56.1213 1.76382 56.116 1.75361 56.1054C1.73363 56.0849 1.73431 56.0524 1.75519 56.0327L2.52301 55.3092H1.96815L1.53611 55.5603C1.52771 55.5653 1.51863 55.5675 1.50955 55.5675C1.49161 55.5675 1.47436 55.5586 1.4646 55.5422C1.45007 55.5176 1.45824 55.4861 1.48298 55.4718L1.76268 55.3094H1.46164C1.43258 55.3087 1.4092 55.2857 1.4092 55.2573Z" fill="#A8D5F6"/>
<path d="M85.3425 49.3703C85.3425 49.3419 85.3659 49.3188 85.3947 49.3188H85.7124L85.4113 49.1538C85.3861 49.1399 85.377 49.1086 85.3911 49.0837C85.4052 49.0589 85.437 49.05 85.4622 49.0638L85.9269 49.3188H86.45L85.6508 48.6362C85.629 48.6176 85.6268 48.5852 85.6456 48.5637C85.6645 48.5422 85.6976 48.54 85.7192 48.5586L86.5356 49.2562V48.6905L86.2806 48.2646C86.2661 48.2403 86.2743 48.2087 86.299 48.1942C86.324 48.1799 86.3558 48.1879 86.3705 48.2123L86.5353 48.4879V48.1913C86.5353 48.1629 86.5587 48.1398 86.5876 48.1398C86.6164 48.1398 86.6398 48.1629 86.6398 48.1913V48.5042L86.8076 48.2076C86.8216 48.1828 86.8534 48.1738 86.8786 48.1877C86.9038 48.2016 86.9129 48.2329 86.8988 48.2577L86.64 48.7156V49.2481L87.4151 48.5174C87.436 48.4977 87.4689 48.4986 87.4889 48.519C87.5089 48.5395 87.5082 48.572 87.4873 48.5917L86.7161 49.3186H87.2523L87.6903 49.0643C87.715 49.05 87.747 49.058 87.7618 49.0824C87.7765 49.1068 87.7681 49.1383 87.7434 49.1529L87.458 49.3186H87.7847C87.8135 49.3186 87.8369 49.3416 87.8369 49.37C87.8369 49.3985 87.8135 49.4215 87.7847 49.4215H87.4532L87.7481 49.5832C87.7733 49.5971 87.7824 49.6284 87.7684 49.6532C87.7588 49.6702 87.7411 49.6796 87.7227 49.6796C87.7141 49.6796 87.7055 49.6776 87.6973 49.6731L87.2385 49.4215H86.7297L87.5247 50.101C87.5465 50.1196 87.5488 50.152 87.53 50.1735C87.5195 50.1851 87.505 50.1912 87.4905 50.1912C87.4784 50.1912 87.4662 50.1871 87.4562 50.1786L86.6398 49.481V50.0214L86.8981 50.4529C86.9129 50.4772 86.9045 50.5088 86.8798 50.5233C86.855 50.5379 86.823 50.5296 86.8082 50.5052L86.64 50.224V50.5459C86.64 50.5743 86.6166 50.5974 86.5878 50.5974C86.559 50.5974 86.5356 50.5743 86.5356 50.5459V50.2193L86.3712 50.5099C86.3617 50.5269 86.344 50.5363 86.3256 50.5363C86.3169 50.5363 86.3083 50.5343 86.3001 50.5298C86.2749 50.5159 86.2659 50.4846 86.2799 50.4598L86.5353 50.0077V49.4888L85.7603 50.2196C85.7503 50.2292 85.7371 50.2339 85.7242 50.2339C85.7103 50.2339 85.6967 50.2285 85.6865 50.218C85.6665 50.1974 85.6672 50.165 85.6881 50.1453L86.4557 49.4217H85.9008L85.4688 49.6727C85.4604 49.6776 85.4513 49.6798 85.4422 49.6798C85.4243 49.6798 85.407 49.6709 85.3972 49.6546C85.3827 49.6302 85.3909 49.5986 85.4156 49.5841L85.6953 49.4217H85.3943C85.3659 49.4217 85.3425 49.3987 85.3425 49.3703Z" fill="#A8D5F6"/>
<path opacity="0.44" d="M69.0899 16.3999C69.0899 16.3715 69.1132 16.3485 69.1421 16.3485H69.4597L69.1587 16.1834C69.1335 16.1695 69.1244 16.1382 69.1384 16.1134C69.1525 16.0886 69.1843 16.0796 69.2095 16.0935L69.6745 16.3485H70.1975L69.3984 15.6658C69.3766 15.6473 69.3743 15.6146 69.3932 15.5931C69.412 15.5717 69.4452 15.5694 69.467 15.588L70.2834 16.2856V15.72L70.0284 15.2943C70.0139 15.2699 70.022 15.2384 70.0468 15.2238C70.0715 15.2095 70.1036 15.2176 70.1183 15.242L70.2831 15.5175V15.2209C70.2831 15.1925 70.3065 15.1695 70.3354 15.1695C70.3642 15.1695 70.3876 15.1925 70.3876 15.2209V15.5339L70.5551 15.2373C70.5692 15.2124 70.601 15.2037 70.6262 15.2174C70.6514 15.2312 70.6605 15.2625 70.6464 15.2874L70.3876 15.7452V16.2778L71.1626 15.5471C71.1835 15.5274 71.2165 15.5283 71.2364 15.5486C71.2564 15.5692 71.2557 15.6016 71.2348 15.6213L70.4636 16.3483H70.9999L71.4378 16.0939C71.4626 16.0796 71.4946 16.0877 71.5093 16.1121C71.5239 16.1364 71.5157 16.168 71.4909 16.1825L71.2056 16.3483H71.5323C71.5611 16.3483 71.5845 16.3713 71.5845 16.3997C71.5845 16.4281 71.5611 16.4512 71.5323 16.4512H71.2008L71.4957 16.6131C71.5209 16.627 71.53 16.6583 71.5159 16.6831C71.5064 16.7001 71.4887 16.7095 71.4703 16.7095C71.4616 16.7095 71.453 16.7075 71.4448 16.703L70.9862 16.4514H70.4775L71.2728 17.1309C71.2946 17.1495 71.2968 17.1821 71.278 17.2034C71.2675 17.215 71.253 17.221 71.2385 17.221C71.2264 17.221 71.2142 17.217 71.2042 17.2085L70.3878 16.5109V17.0513L70.6459 17.4827C70.6605 17.5071 70.6523 17.5387 70.6275 17.5532C70.6028 17.5677 70.5708 17.5595 70.556 17.5351L70.3878 17.2539V17.5758C70.3878 17.6042 70.3644 17.6272 70.3356 17.6272C70.3067 17.6272 70.2834 17.6042 70.2834 17.5758V17.2492L70.1192 17.5398C70.1097 17.5568 70.092 17.5662 70.0736 17.5662C70.065 17.5662 70.0563 17.5639 70.0482 17.5597C70.023 17.5458 70.0139 17.5145 70.028 17.4897L70.2834 17.0379V16.5189L69.5083 17.2497C69.4981 17.2593 69.4851 17.264 69.4722 17.264C69.4583 17.264 69.4447 17.2586 69.4345 17.2481C69.4145 17.2275 69.4152 17.1951 69.4361 17.1754L70.2037 16.4518H69.6488L69.2165 16.703C69.2081 16.7079 69.1991 16.7102 69.19 16.7102C69.172 16.7102 69.1548 16.7012 69.145 16.6849C69.1303 16.6603 69.1387 16.629 69.1634 16.6144L69.4431 16.4521H69.1421C69.1132 16.4514 69.0899 16.4283 69.0899 16.3999Z" fill="#196EBA"/>
<path opacity="0.44" d="M85.3684 29.3735C85.3684 29.3451 85.3918 29.3221 85.4206 29.3221H85.7382L85.4372 29.157C85.412 29.1431 85.4029 29.1118 85.417 29.087C85.4311 29.0621 85.4629 29.0532 85.4881 29.0671L85.9528 29.3221H86.4759L85.6767 28.6394C85.6549 28.6208 85.6527 28.5882 85.6715 28.5667C85.6903 28.5452 85.7235 28.543 85.7451 28.5616L86.5615 29.2592V28.6935L86.3067 28.2679C86.292 28.2435 86.3004 28.212 86.3251 28.1974C86.3499 28.1831 86.3819 28.1912 86.3966 28.2155L86.5615 28.4911V28.1945C86.5615 28.1661 86.5848 28.1431 86.6137 28.1431C86.6425 28.1431 86.6659 28.1661 86.6659 28.1945V28.5074L86.8334 28.2108C86.8475 28.186 86.8793 28.1773 86.9045 28.1909C86.9297 28.2048 86.9388 28.2361 86.9247 28.2609L86.6659 28.7188V29.2514L87.441 28.5206C87.4619 28.5009 87.4948 28.5018 87.5148 28.5222C87.5347 28.5428 87.5341 28.5752 87.5132 28.5949L86.7419 29.3218H87.2782L87.7161 29.0675C87.7409 29.0532 87.7729 29.0613 87.7876 29.0856C87.8022 29.11 87.794 29.1416 87.7693 29.1561L87.4839 29.3218H87.8106C87.8394 29.3218 87.8628 29.3449 87.8628 29.3733C87.8628 29.4017 87.8394 29.4247 87.8106 29.4247H87.4791L87.774 29.5867C87.7992 29.6005 87.8083 29.6318 87.7942 29.6567C87.7847 29.6737 87.767 29.6831 87.7486 29.6831C87.74 29.6831 87.7313 29.6811 87.7232 29.6766L87.2643 29.425H86.7556L87.5506 30.1045C87.5724 30.123 87.5747 30.1557 87.5558 30.1769C87.5456 30.1886 87.5311 30.1946 87.5163 30.1946C87.5041 30.1946 87.4921 30.1906 87.4821 30.1821L86.6657 29.4844V30.0248L86.924 30.4563C86.9388 30.4807 86.9304 30.5122 86.9056 30.5268C86.8809 30.5413 86.8489 30.533 86.8341 30.5087L86.6659 30.2275V30.5494C86.6659 30.5778 86.6425 30.6008 86.6137 30.6008C86.5848 30.6008 86.5615 30.5778 86.5615 30.5494V30.2228L86.3971 30.5134C86.3875 30.5304 86.3698 30.5397 86.3515 30.5397C86.3428 30.5397 86.3342 30.5375 86.326 30.5333C86.3008 30.5194 86.2917 30.4881 86.3058 30.4633L86.5612 30.0114V29.4925L85.7861 30.2232C85.7759 30.2329 85.763 30.2376 85.75 30.2376C85.7362 30.2376 85.7226 30.2322 85.7124 30.2217C85.6924 30.2011 85.6933 30.1687 85.7139 30.149L86.4818 29.4254H85.9269L85.4949 29.6766C85.4865 29.6815 85.4774 29.6837 85.4683 29.6837C85.4504 29.6837 85.4331 29.6748 85.4233 29.6585C85.4088 29.6339 85.417 29.6025 85.4417 29.588L85.7214 29.4256H85.4204C85.3918 29.425 85.3684 29.4019 85.3684 29.3735Z" fill="#196EBA"/>
<path d="M74.888 12.5591C74.888 12.5108 74.9277 12.4719 74.9765 12.4719H75.5157L75.0046 12.1914C74.962 12.1679 74.9465 12.1147 74.9704 12.0726C74.9942 12.0306 75.048 12.0154 75.0909 12.0389L75.8801 12.4719H76.768L75.4115 11.3128C75.3745 11.2813 75.3706 11.226 75.4026 11.1896C75.4349 11.1531 75.4907 11.1493 75.5277 11.1809L76.9135 12.365V11.405L76.481 10.6823C76.4561 10.6407 76.4701 10.5872 76.5124 10.5626C76.5546 10.5382 76.6088 10.5519 76.6338 10.5935L76.9137 11.0612V10.5577C76.9137 10.5094 76.9535 10.4705 77.0023 10.4705C77.0513 10.4705 77.0908 10.5096 77.0908 10.5577V11.0889L77.3755 10.5854C77.3994 10.5434 77.4534 10.5284 77.4961 10.5517C77.5388 10.5751 77.5542 10.6284 77.5304 10.6704L77.0908 11.4479V12.352L78.4067 11.1115C78.4421 11.0782 78.4982 11.0795 78.532 11.1142C78.5658 11.1491 78.5647 11.2043 78.5293 11.2377L77.22 12.4717H78.1302L78.8735 12.0398C78.9157 12.0154 78.97 12.029 78.9949 12.0706C79.0199 12.1122 79.0058 12.1657 78.9636 12.1903L78.4791 12.4717H79.0335C79.0826 12.4717 79.1221 12.5108 79.1221 12.5589C79.1221 12.6072 79.0823 12.6462 79.0335 12.6462H78.4709L78.9716 12.9208C79.0142 12.9443 79.0297 12.9975 79.0058 13.0396C78.9895 13.0682 78.9595 13.0846 78.9284 13.0846C78.9139 13.0846 78.8989 13.081 78.8853 13.0736L78.1066 12.6464H77.2427L78.5926 13.7996C78.6296 13.8312 78.6335 13.8864 78.6015 13.9229C78.584 13.9428 78.5593 13.9531 78.5345 13.9531C78.5139 13.9531 78.4932 13.9461 78.4764 13.9318L77.0906 12.7477V13.665L77.529 14.3973C77.5537 14.4389 77.5399 14.4924 77.4977 14.517C77.4554 14.5416 77.4012 14.5277 77.3762 14.4861L77.0906 14.0088V14.555C77.0906 14.6033 77.0509 14.6422 77.0021 14.6422C76.953 14.6422 76.9135 14.6031 76.9135 14.555V14.0007L76.6347 14.4939C76.6186 14.5226 76.5884 14.5389 76.5573 14.5389C76.5428 14.5389 76.528 14.5353 76.5142 14.5279C76.4715 14.5044 76.4561 14.4512 76.4799 14.4092L76.9135 13.642V12.7609L75.5976 14.0012C75.5804 14.0173 75.5584 14.0253 75.5364 14.0253C75.513 14.0253 75.4898 14.0164 75.4723 13.9985C75.4385 13.9636 75.4396 13.9083 75.4751 13.875L76.7782 12.6466H75.8363L75.1027 13.0729C75.0886 13.0812 75.073 13.085 75.0578 13.085C75.0273 13.085 74.9978 13.0696 74.9813 13.0421C74.9563 13.0004 74.9704 12.947 75.0126 12.9224L75.4873 12.6466H74.9763C74.9277 12.6464 74.888 12.6072 74.888 12.5591Z" fill="white"/>
<path d="M80.6491 36.0457C80.6491 36.0108 80.6777 35.9826 80.7131 35.9826H81.102L80.7335 35.7804C80.7027 35.7634 80.6915 35.7252 80.7088 35.6948C80.726 35.6644 80.7649 35.6536 80.7957 35.6704L81.3649 35.9826H82.0054L81.0271 35.1468C81.0005 35.124 80.9976 35.0841 81.0207 35.058C81.0439 35.0316 81.0843 35.0289 81.1109 35.0517L82.1102 35.9057V35.2132L81.7983 34.692C81.7804 34.6621 81.7904 34.6234 81.821 34.6059C81.8514 34.5883 81.8905 34.5983 81.9084 34.6283L82.1102 34.9656V34.6026C82.1102 34.5677 82.1388 34.5395 82.1743 34.5395C82.2095 34.5395 82.2381 34.5677 82.2381 34.6026V34.9857L82.4433 34.6227C82.4606 34.5923 82.4994 34.5815 82.5303 34.5983C82.5611 34.6153 82.5723 34.6536 82.555 34.684L82.2381 35.2447V35.8968L83.187 35.0023C83.2125 34.9783 83.2531 34.9792 83.2774 35.0043C83.3017 35.0293 83.301 35.0694 83.2754 35.0933L82.3311 35.9833H82.9875L83.5235 35.672C83.5539 35.6543 83.593 35.6644 83.6111 35.6943C83.6291 35.7243 83.6189 35.7628 83.5884 35.7804L83.239 35.9833H83.6388C83.674 35.9833 83.7026 36.0115 83.7026 36.0464C83.7026 36.0813 83.674 36.1092 83.6388 36.1092H83.2331L83.5941 36.3074C83.625 36.3244 83.6361 36.3627 83.6189 36.3931C83.6073 36.4137 83.5855 36.4255 83.563 36.4255C83.5526 36.4255 83.5419 36.4228 83.5319 36.4175L82.9702 36.1092H82.3473L83.3208 36.9411C83.3473 36.9639 83.3503 37.0037 83.3271 37.0299C83.3144 37.0442 83.2967 37.0516 83.2788 37.0516C83.264 37.0516 83.249 37.0464 83.237 37.0362L82.2376 36.1822V36.8436L82.5539 37.3717C82.5718 37.4016 82.5618 37.4403 82.5314 37.4578C82.501 37.4755 82.4617 37.4654 82.4438 37.4356L82.2376 37.0914V37.4853C82.2376 37.5202 82.209 37.5484 82.1738 37.5484C82.1384 37.5484 82.1098 37.5202 82.1098 37.4853V37.0856L81.9086 37.4412C81.8968 37.4618 81.8753 37.4737 81.8528 37.4737C81.8423 37.4737 81.8317 37.471 81.8217 37.4656C81.7908 37.4486 81.7797 37.4104 81.7969 37.3799L82.1098 36.8268V36.1916L81.1608 37.086C81.1485 37.0977 81.1324 37.1035 81.1165 37.1035C81.0997 37.1035 81.0829 37.097 81.0704 37.084C81.0462 37.059 81.0468 37.0189 81.0725 36.995L82.0124 36.109H81.3331L80.8041 36.4163C80.7939 36.4224 80.7828 36.4251 80.7717 36.4251C80.7499 36.4251 80.7285 36.4141 80.7165 36.3942C80.6986 36.3642 80.7086 36.3255 80.739 36.3079L81.0813 36.109H80.7129C80.6777 36.1086 80.6491 36.0806 80.6491 36.0457Z" fill="white"/>
<path d="M87.6864 45.9258C87.4064 45.9258 87.1794 45.7021 87.1794 45.4263C87.1794 45.1504 87.4064 44.9268 87.6864 44.9268C87.9664 44.9268 88.1934 45.1504 88.1934 45.4263C88.1934 45.7021 87.9664 45.9258 87.6864 45.9258Z" fill="#A8D5F6"/>
<path d="M55.3415 4.71727C55.3415 4.99306 55.5686 5.21674 55.8485 5.21674C56.1284 5.21674 56.3555 4.99306 56.3555 4.71727C56.3555 4.44148 56.1284 4.2178 55.8485 4.2178C55.5686 4.2178 55.3415 4.44148 55.3415 4.71727Z" fill="#A8D5F6"/>
<path d="M0.506719 51.2949C0.226734 51.2949 -0.000240207 51.0712 -0.000240207 50.7954C-0.000240207 50.5195 0.226734 50.2959 0.506719 50.2959C0.786705 50.2959 1.01367 50.5195 1.01367 50.7954C1.01367 51.0712 0.786705 51.2949 0.506719 51.2949Z" fill="#A8D5F6"/>
<path d="M84.1753 40.625C84.1753 40.8887 84.3924 41.1026 84.66 41.1026C84.9277 41.1026 85.1445 40.8887 85.1445 40.625C85.1445 40.3613 84.9275 40.1475 84.66 40.1475C84.3926 40.1475 84.1753 40.3613 84.1753 40.625Z" fill="white"/>
<path d="M62.5311 35.257C62.5311 35.5207 62.7481 35.7345 63.0158 35.7345C63.2834 35.7345 63.5005 35.5207 63.5005 35.257C63.5005 34.9933 63.2834 34.7794 63.0158 34.7794C62.7479 34.7794 62.5311 34.9933 62.5311 35.257Z" fill="white"/>
<path d="M21.8172 24.5801C21.8172 24.8438 22.0342 25.0576 22.3019 25.0576C22.5696 25.0576 22.7866 24.8438 22.7866 24.5801C22.7866 24.3163 22.5696 24.1025 22.3019 24.1025C22.0342 24.1025 21.8172 24.3163 21.8172 24.5801Z" fill="white"/>
<path d="M10.7378 15.6037C10.7378 15.8674 10.9549 16.0813 11.2225 16.0813C11.4902 16.0813 11.707 15.8674 11.707 15.6037C11.707 15.34 11.49 15.1262 11.2225 15.1262C10.9551 15.1262 10.7378 15.34 10.7378 15.6037Z" fill="white"/>
<defs>
<linearGradient id="paint0_linear_36_6585" x1="35.3564" y1="19.5401" x2="33.5976" y2="19.5401" gradientUnits="userSpaceOnUse">
<stop stop-color="white" stop-opacity="0"/>
<stop offset="0.1223" stop-color="#F6DFE7" stop-opacity="0.1223"/>
<stop offset="0.3339" stop-color="#E7AEC1" stop-opacity="0.3339"/>
<stop offset="0.5343" stop-color="#DC88A4" stop-opacity="0.5343"/>
<stop offset="0.7179" stop-color="#D46C8E" stop-opacity="0.7179"/>
<stop offset="0.879" stop-color="#CF5B82" stop-opacity="0.879"/>
<stop offset="1" stop-color="#CD557D"/>
</linearGradient>
</defs>
</svg>
